<?xml version="1.0" encoding="UTF-8"?>
<?xml-stylesheet href="https://cdnjs.cloudflare.com/ajax/libs/font-awesome/6.7.2/css/all.min.css" type="text/css"?>
<svg aria-roledescription="flowchart-v2" role="graphics-document document" style="overflow: hidden; max-width: 100%; touch-action: none; user-select: none; -webkit-user-drag: none; -webkit-tap-highlight-color: rgba(0, 0, 0, 0);" class="flowchart" xmlns="http://www.w3.org/2000/svg" width="100%" id="graph-1751" height="100%" xmlns:xlink="http://www.w3.org/1999/xlink" xmlns:ev="http://www.w3.org/2001/xml-events"><g id="viewport-20250507145213011" class="svg-pan-zoom_viewport" transform="matrix(0.5318786225707467,0,0,0.5318786225707467,426.5035071486281,73.12496232933329)" style="transform: matrix(0.531879, 0, 0, 0.531879, 426.504, 73.125);"><style>#graph-1751{font-family:"trebuchet ms",verdana,arial,sans-serif;font-size:16px;fill:#000000;}@keyframes edge-animation-frame{from{stroke-dashoffset:0;}}@keyframes dash{to{stroke-dashoffset:0;}}#graph-1751 .edge-animation-slow{stroke-dasharray:9,5!important;stroke-dashoffset:900;animation:dash 50s linear infinite;stroke-linecap:round;}#graph-1751 .edge-animation-fast{stroke-dasharray:9,5!important;stroke-dashoffset:900;animation:dash 20s linear infinite;stroke-linecap:round;}#graph-1751 .error-icon{fill:#552222;}#graph-1751 .error-text{fill:#552222;stroke:#552222;}#graph-1751 .edge-thickness-normal{stroke-width:1px;}#graph-1751 .edge-thickness-thick{stroke-width:3.5px;}#graph-1751 .edge-pattern-solid{stroke-dasharray:0;}#graph-1751 .edge-thickness-invisible{stroke-width:0;fill:none;}#graph-1751 .edge-pattern-dashed{stroke-dasharray:3;}#graph-1751 .edge-pattern-dotted{stroke-dasharray:2;}#graph-1751 .marker{fill:#000000;stroke:#000000;}#graph-1751 .marker.cross{stroke:#000000;}#graph-1751 svg{font-family:"trebuchet ms",verdana,arial,sans-serif;font-size:16px;}#graph-1751 p{margin:0;}#graph-1751 .label{font-family:"trebuchet ms",verdana,arial,sans-serif;color:#000000;}#graph-1751 .cluster-label text{fill:#333;}#graph-1751 .cluster-label span{color:#333;}#graph-1751 .cluster-label span p{background-color:transparent;}#graph-1751 .label text,#graph-1751 span{fill:#000000;color:#000000;}#graph-1751 .node rect,#graph-1751 .node circle,#graph-1751 .node ellipse,#graph-1751 .node polygon,#graph-1751 .node path{fill:#cde498;stroke:#13540c;stroke-width:1px;}#graph-1751 .rough-node .label text,#graph-1751 .node .label text,#graph-1751 .image-shape .label,#graph-1751 .icon-shape .label{text-anchor:middle;}#graph-1751 .node .katex path{fill:#000;stroke:#000;stroke-width:1px;}#graph-1751 .rough-node .label,#graph-1751 .node .label,#graph-1751 .image-shape .label,#graph-1751 .icon-shape .label{text-align:center;}#graph-1751 .node.clickable{cursor:pointer;}#graph-1751 .root .anchor path{fill:#000000!important;stroke-width:0;stroke:#000000;}#graph-1751 .arrowheadPath{fill:green;}#graph-1751 .edgePath .path{stroke:#000000;stroke-width:2.0px;}#graph-1751 .flowchart-link{stroke:#000000;fill:none;}#graph-1751 .edgeLabel{background-color:#e8e8e8;text-align:center;}#graph-1751 .edgeLabel p{background-color:#e8e8e8;}#graph-1751 .edgeLabel rect{opacity:0.5;background-color:#e8e8e8;fill:#e8e8e8;}#graph-1751 .labelBkg{background-color:rgba(232, 232, 232, 0.5);}#graph-1751 .cluster rect{fill:#cdffb2;stroke:#6eaa49;stroke-width:1px;}#graph-1751 .cluster text{fill:#333;}#graph-1751 .cluster span{color:#333;}#graph-1751 div.mermaidTooltip{position:absolute;text-align:center;max-width:200px;padding:2px;font-family:"trebuchet ms",verdana,arial,sans-serif;font-size:12px;background:hsl(78.1578947368, 58.4615384615%, 84.5098039216%);border:1px solid #6eaa49;border-radius:2px;pointer-events:none;z-index:100;}#graph-1751 .flowchartTitleText{text-anchor:middle;font-size:18px;fill:#000000;}#graph-1751 rect.text{fill:none;stroke-width:0;}#graph-1751 .icon-shape,#graph-1751 .image-shape{background-color:#e8e8e8;text-align:center;}#graph-1751 .icon-shape p,#graph-1751 .image-shape p{background-color:#e8e8e8;padding:2px;}#graph-1751 .icon-shape rect,#graph-1751 .image-shape rect{opacity:0.5;background-color:#e8e8e8;fill:#e8e8e8;}#graph-1751 :root{--mermaid-font-family:"trebuchet ms",verdana,arial,sans-serif;}#graph-1751 .userInput&gt;*{fill:#e1f5fe!important;}#graph-1751 .userInput span{fill:#e1f5fe!important;}#graph-1751 .pythonNodes&gt;*{fill:#e8f5e9!important;}#graph-1751 .pythonNodes span{fill:#e8f5e9!important;}#graph-1751 .cNodes&gt;*{fill:#fcc9c9!important;}#graph-1751 .cNodes span{fill:#fcc9c9!important;}#graph-1751 .rosNodes&gt;*{fill:#fff3e0!important;}#graph-1751 .rosNodes span{fill:#fff3e0!important;}#graph-1751 .luaNodes&gt;*{fill:#f3e5f5!important;}#graph-1751 .luaNodes span{fill:#f3e5f5!important;}#graph-1751 .beamngNodes&gt;*{fill:#ffebee!important;}#graph-1751 .beamngNodes span{fill:#ffebee!important;}</style><g><marker orient="auto" markerHeight="8" markerWidth="8" markerUnits="userSpaceOnUse" refY="5" refX="5" viewBox="0 0 10 10" class="marker flowchart-v2" id="graph-1751_flowchart-v2-pointEnd"><path style="stroke-width: 1; stroke-dasharray: 1, 0;" class="arrowMarkerPath" d="M 0 0 L 10 5 L 0 10 z"></path></marker><marker orient="auto" markerHeight="8" markerWidth="8" markerUnits="userSpaceOnUse" refY="5" refX="4.5" viewBox="0 0 10 10" class="marker flowchart-v2" id="graph-1751_flowchart-v2-pointStart"><path style="stroke-width: 1; stroke-dasharray: 1, 0;" class="arrowMarkerPath" d="M 0 5 L 10 10 L 10 0 z"></path></marker><marker orient="auto" markerHeight="11" markerWidth="11" markerUnits="userSpaceOnUse" refY="5" refX="11" viewBox="0 0 10 10" class="marker flowchart-v2" id="graph-1751_flowchart-v2-circleEnd"><circle style="stroke-width: 1; stroke-dasharray: 1, 0;" class="arrowMarkerPath" r="5" cy="5" cx="5"></circle></marker><marker orient="auto" markerHeight="11" markerWidth="11" markerUnits="userSpaceOnUse" refY="5" refX="-1" viewBox="0 0 10 10" class="marker flowchart-v2" id="graph-1751_flowchart-v2-circleStart"><circle style="stroke-width: 1; stroke-dasharray: 1, 0;" class="arrowMarkerPath" r="5" cy="5" cx="5"></circle></marker><marker orient="auto" markerHeight="11" markerWidth="11" markerUnits="userSpaceOnUse" refY="5.2" refX="12" viewBox="0 0 11 11" class="marker cross flowchart-v2" id="graph-1751_flowchart-v2-crossEnd"><path style="stroke-width: 2; stroke-dasharray: 1, 0;" class="arrowMarkerPath" d="M 1,1 l 9,9 M 10,1 l -9,9"></path></marker><marker orient="auto" markerHeight="11" markerWidth="11" markerUnits="userSpaceOnUse" refY="5.2" refX="-1" viewBox="0 0 11 11" class="marker cross flowchart-v2" id="graph-1751_flowchart-v2-crossStart"><path style="stroke-width: 2; stroke-dasharray: 1, 0;" class="arrowMarkerPath" d="M 1,1 l 9,9 M 10,1 l -9,9"></path></marker><g class="root"><g class="clusters"><g data-look="classic" id="BeamNGEnv" class="cluster"><rect height="1096" width="484.984375" y="820.78125" x="8" style=""></rect><g transform="translate(170.4609375, 820.78125)" class="cluster-label"><foreignObject height="24" width="160.0625"><div style="display: table-cell; white-space: nowrap; line-height: 1.5; max-width: 200px; text-align: center;" xmlns="http://www.w3.org/1999/xhtml"><span class="nodeLabel"><p>BeamNG Environment</p></span></div></foreignObject></g></g><g data-look="classic" id="ROSEnv" class="cluster"><rect height="1633" width="1303.6484375" y="130.78125" x="512.984375" style=""></rect><g transform="translate(1100.33984375, 130.78125)" class="cluster-label"><foreignObject height="24" width="128.9375"><div style="display: table-cell; white-space: nowrap; line-height: 1.5; max-width: 200px; text-align: center;" xmlns="http://www.w3.org/1999/xhtml"><span class="nodeLabel"><p>ROS Environment</p></span></div></foreignObject></g></g><g data-look="classic" id="VehicleLua" class="cluster"><rect height="410" width="436.7578125" y="1328.78125" x="28" style=""></rect><g transform="translate(205.01171875, 1328.78125)" class="cluster-label"><foreignObject height="24" width="82.734375"><div style="display: table-cell; white-space: nowrap; line-height: 1.5; max-width: 200px; text-align: center;" xmlns="http://www.w3.org/1999/xhtml"><span class="nodeLabel"><p>Vehicle Lua</p></span></div></foreignObject></g></g><g data-look="classic" id="LuaSystem" class="cluster"><rect height="257" width="376.48046875" y="973.78125" x="79.19140625" style=""></rect><g transform="translate(186.494140625, 973.78125)" class="cluster-label"><foreignObject height="24" width="161.875"><div style="display: table-cell; white-space: nowrap; line-height: 1.5; max-width: 200px; text-align: center;" xmlns="http://www.w3.org/1999/xhtml"><span class="nodeLabel"><p>Game Engine (ge) Lua</p></span></div></foreignObject></g></g><g data-look="classic" id="CtrlComponents" class="cluster"><rect height="306" width="444.046875" y="1126.78125" x="532.984375" style=""></rect><g transform="translate(698.9765625, 1126.78125)" class="cluster-label"><foreignObject height="24" width="112.0625"><div style="display: table-cell; white-space: nowrap; line-height: 1.5; max-width: 200px; text-align: center;" xmlns="http://www.w3.org/1999/xhtml"><span class="nodeLabel"><p>Controller Node</p></span></div></foreignObject></g></g><g data-look="classic" id="SimComponents" class="cluster"><rect height="1302" width="628.3671875" y="283.78125" x="997.03125" style=""></rect><g transform="translate(1252.51171875, 283.78125)" class="cluster-label"><foreignObject height="24" width="117.40625"><div style="display: table-cell; white-space: nowrap; line-height: 1.5; max-width: 200px; text-align: center;" xmlns="http://www.w3.org/1999/xhtml"><span class="nodeLabel"><p>Simulation Node</p></span></div></foreignObject></g></g></g><g class="edgePaths"><path marker-end="url(#graph-1751_flowchart-v2-pointEnd)" style="" class="edge-thickness-normal edge-pattern-solid edge-thickness-normal edge-pattern-solid flowchart-link" id="L_User_ControllerInterface_0" d="M1422.512,56.781L1422.512,62.948C1422.512,69.115,1422.512,81.448,1422.512,93.781C1422.512,106.115,1422.512,118.448,1422.512,128.115C1422.512,137.781,1422.512,144.781,1422.512,148.281L1422.512,151.781"></path><path marker-end="url(#graph-1751_flowchart-v2-pointEnd)" style="" class="edge-thickness-normal edge-pattern-solid edge-thickness-normal edge-pattern-solid flowchart-link" id="L_ControllerInterface_SimManager_0" d="M1374.659,209.781L1363.729,215.948C1352.8,222.115,1330.941,234.448,1320.011,246.781C1309.082,259.115,1309.082,271.448,1309.082,281.115C1309.082,290.781,1309.082,297.781,1309.082,301.281L1309.082,304.781"></path><path marker-end="url(#graph-1751_flowchart-v2-pointEnd)" style="" class="edge-thickness-normal edge-pattern-solid edge-thickness-normal edge-pattern-solid flowchart-link" id="L_ControllerInterface_HighLevelController_0" d="M1531.223,207.412L1560.183,213.974C1589.143,220.535,1647.064,233.658,1676.024,246.386C1704.984,259.115,1704.984,271.448,1704.984,286.281C1704.984,301.115,1704.984,318.448,1704.984,337.781C1704.984,357.115,1704.984,378.448,1704.984,399.781C1704.984,421.115,1704.984,442.448,1704.984,463.781C1704.984,485.115,1704.984,506.448,1704.984,527.781C1704.984,549.115,1704.984,570.448,1704.984,591.781C1704.984,613.115,1704.984,634.448,1704.984,655.781C1704.984,677.115,1704.984,698.448,1704.984,719.781C1704.984,741.115,1704.984,762.448,1704.984,779.281C1704.984,796.115,1704.984,808.448,1546.482,823.281C1387.98,838.115,1070.977,855.448,912.475,874.781C753.973,894.115,753.973,915.448,753.973,932.281C753.973,949.115,753.973,961.448,753.973,976.281C753.973,991.115,753.973,1008.448,753.973,1027.781C753.973,1047.115,753.973,1068.448,753.973,1085.281C753.973,1102.115,753.973,1114.448,753.973,1124.115C753.973,1133.781,753.973,1140.781,753.973,1144.281L753.973,1147.781"></path><path marker-end="url(#graph-1751_flowchart-v2-pointEnd)" style="" class="edge-thickness-normal edge-pattern-solid edge-thickness-normal edge-pattern-solid flowchart-link" id="L_SimManager_BeamNGPy_0" d="M1231.948,362.781L1214.331,368.948C1196.714,375.115,1161.48,387.448,1143.863,404.281C1126.246,421.115,1126.246,442.448,1126.246,463.781C1126.246,485.115,1126.246,506.448,1126.246,527.781C1126.246,549.115,1126.246,570.448,1126.246,591.781C1126.246,613.115,1126.246,634.448,1126.246,655.781C1126.246,677.115,1126.246,698.448,1126.246,719.781C1126.246,741.115,1126.246,762.448,1126.246,779.281C1126.246,796.115,1126.246,808.448,998.48,822.205C870.714,835.962,615.182,851.143,487.415,858.733L359.649,866.324"></path><path marker-end="url(#graph-1751_flowchart-v2-pointEnd)" style="" class="edge-thickness-normal edge-pattern-solid edge-thickness-normal edge-pattern-solid flowchart-link" id="L_SimManager_VehicleManager_0" d="M1355.526,362.781L1366.134,368.948C1376.741,375.115,1397.957,387.448,1408.564,399.115C1419.172,410.781,1419.172,421.781,1419.172,427.281L1419.172,432.781"></path><path marker-end="url(#graph-1751_flowchart-v2-pointEnd)" style="" class="edge-thickness-normal edge-pattern-solid edge-thickness-normal edge-pattern-solid flowchart-link" id="L_VehicleManager_ControllerRegistry_0" d="M1388.482,490.781L1381.473,496.948C1374.463,503.115,1360.445,515.448,1353.435,527.115C1346.426,538.781,1346.426,549.781,1346.426,555.281L1346.426,560.781"></path><path marker-end="url(#graph-1751_flowchart-v2-pointEnd)" style="" class="edge-thickness-normal edge-pattern-solid edge-thickness-normal edge-pattern-solid flowchart-link" id="L_VehicleManager_SensorRegistry_0" d="M1449.862,490.781L1456.871,496.948C1463.88,503.115,1477.899,515.448,1484.909,532.281C1491.918,549.115,1491.918,570.448,1491.918,591.781C1491.918,613.115,1491.918,634.448,1491.918,655.781C1491.918,677.115,1491.918,698.448,1491.918,719.781C1491.918,741.115,1491.918,762.448,1491.918,779.281C1491.918,796.115,1491.918,808.448,1491.918,823.281C1491.918,838.115,1491.918,855.448,1491.918,874.781C1491.918,894.115,1491.918,915.448,1491.918,932.281C1491.918,949.115,1491.918,961.448,1491.918,976.281C1491.918,991.115,1491.918,1008.448,1491.918,1027.781C1491.918,1047.115,1491.918,1068.448,1491.918,1085.281C1491.918,1102.115,1491.918,1114.448,1491.918,1129.281C1491.918,1144.115,1491.918,1161.448,1491.918,1178.781C1491.918,1196.115,1491.918,1213.448,1491.918,1230.281C1491.918,1247.115,1491.918,1263.448,1491.918,1279.781C1491.918,1296.115,1491.918,1312.448,1491.918,1324.115C1491.918,1335.781,1491.918,1342.781,1491.918,1346.281L1491.918,1349.781"></path><path marker-end="url(#graph-1751_flowchart-v2-pointEnd)" style="" class="edge-thickness-normal edge-pattern-solid edge-thickness-normal edge-pattern-solid flowchart-link" id="L_ControllerRegistry_LowLevelController_0" d="M1346.426,618.781L1346.426,624.948C1346.426,631.115,1346.426,643.448,1346.426,655.115C1346.426,666.781,1346.426,677.781,1346.426,683.281L1346.426,688.781"></path><path marker-end="url(#graph-1751_flowchart-v2-pointEnd)" style="" class="edge-thickness-normal edge-pattern-solid edge-thickness-normal edge-pattern-solid flowchart-link" id="L_SensorRegistry_GtStateSensor_0" d="M1491.918,1407.781L1491.918,1411.948C1491.918,1416.115,1491.918,1424.448,1491.918,1434.781C1491.918,1445.115,1491.918,1457.448,1491.918,1469.115C1491.918,1480.781,1491.918,1491.781,1491.918,1497.281L1491.918,1502.781"></path><path marker-end="url(#graph-1751_flowchart-v2-pointEnd)" style="" class="edge-thickness-normal edge-pattern-solid edge-thickness-normal edge-pattern-solid flowchart-link" id="L_LowLevelController_BeamNGPy_0" d="M1346.426,746.781L1346.426,752.948C1346.426,759.115,1346.426,771.448,1346.426,783.781C1346.426,796.115,1346.426,808.448,1181.963,822.421C1017.501,836.395,688.576,852.008,524.114,859.815L359.652,867.622"></path><path marker-end="url(#graph-1751_flowchart-v2-pointEnd)" style="" class="edge-thickness-normal edge-pattern-solid edge-thickness-normal edge-pattern-solid flowchart-link" id="L_BeamNGPy_XlabCore_0" d="M250.953,899.781L250.953,905.948C250.953,912.115,250.953,924.448,250.953,936.781C250.953,949.115,250.953,961.448,250.953,971.115C250.953,980.781,250.953,987.781,250.953,991.281L250.953,994.781"></path><path marker-end="url(#graph-1751_flowchart-v2-pointEnd)" style="" class="edge-thickness-normal edge-pattern-solid edge-thickness-normal edge-pattern-solid flowchart-link" id="L_XlabCore_extController_0" d="M210.114,1052.781L200.786,1058.948C191.459,1065.115,172.804,1077.448,163.476,1089.781C154.148,1102.115,154.148,1114.448,154.148,1129.281C154.148,1144.115,154.148,1161.448,154.148,1178.781C154.148,1196.115,154.148,1213.448,154.148,1230.281C154.148,1247.115,154.148,1263.448,154.148,1279.781C154.148,1296.115,154.148,1312.448,154.148,1324.115C154.148,1335.781,154.148,1342.781,154.148,1346.281L154.148,1349.781"></path><path marker-end="url(#graph-1751_flowchart-v2-pointEnd)" style="" class="edge-thickness-normal edge-pattern-solid edge-thickness-normal edge-pattern-solid flowchart-link" id="L_XlabCore_SensorsLua_0" d="M291.793,1052.781L301.12,1058.948C310.448,1065.115,329.103,1077.448,338.43,1089.781C347.758,1102.115,347.758,1114.448,347.758,1124.115C347.758,1133.781,347.758,1140.781,347.758,1144.281L347.758,1147.781"></path><path marker-end="url(#graph-1751_flowchart-v2-pointEnd)" style="" class="edge-thickness-normal edge-pattern-solid edge-thickness-normal edge-pattern-solid flowchart-link" id="L_extController_ctrlManager_0" d="M154.148,1407.781L154.148,1411.948C154.148,1416.115,154.148,1424.448,154.148,1434.781C154.148,1445.115,154.148,1457.448,157.511,1469.21C160.874,1480.972,167.6,1492.162,170.963,1497.758L174.325,1503.353"></path><path marker-end="url(#graph-1751_flowchart-v2-pointEnd)" style="" class="edge-thickness-normal edge-pattern-solid edge-thickness-normal edge-pattern-solid flowchart-link" id="L_ctrlManager_ctrlImpl_0" d="M192.613,1560.781L192.613,1564.948C192.613,1569.115,192.613,1577.448,192.613,1587.781C192.613,1598.115,192.613,1610.448,192.613,1622.115C192.613,1633.781,192.613,1644.781,192.613,1650.281L192.613,1655.781"></path><path marker-end="url(#graph-1751_flowchart-v2-pointEnd)" marker-start="url(#graph-1751_flowchart-v2-pointStart)" style="" class="edge-thickness-normal edge-pattern-solid edge-thickness-normal edge-pattern-solid flowchart-link" id="L_HighLevelController_extController_0" d="M705.534,1207.839L699.16,1211.663C692.785,1215.486,680.037,1223.134,673.663,1235.124C667.289,1247.115,667.289,1263.448,667.289,1279.781C667.289,1296.115,667.289,1312.448,594.989,1327.941C522.689,1343.435,378.088,1358.088,305.788,1365.415L233.487,1372.741"></path><path marker-end="url(#graph-1751_flowchart-v2-pointEnd)" marker-start="url(#graph-1751_flowchart-v2-pointStart)" style="" class="edge-thickness-normal edge-pattern-solid edge-thickness-normal edge-pattern-solid flowchart-link" id="L_HighLevelController_HighLevelCompute_0" d="M802.412,1207.839L808.786,1211.663C815.16,1215.486,827.908,1223.134,834.282,1235.124C840.656,1247.115,840.656,1263.448,840.656,1279.781C840.656,1296.115,840.656,1312.448,840.656,1324.115C840.656,1335.781,840.656,1342.781,840.656,1346.281L840.656,1349.781"></path><path marker-end="url(#graph-1751_flowchart-v2-pointEnd)" style="" class="edge-thickness-normal edge-pattern-solid edge-thickness-normal edge-pattern-solid flowchart-link" id="L_SensorsLua_GtStateModule_0" d="M347.758,1205.781L347.758,1209.948C347.758,1214.115,347.758,1222.448,347.758,1234.781C347.758,1247.115,347.758,1263.448,347.758,1279.781C347.758,1296.115,347.758,1312.448,347.758,1324.115C347.758,1335.781,347.758,1342.781,347.758,1346.281L347.758,1349.781"></path><path marker-end="url(#graph-1751_flowchart-v2-pointEnd)" marker-start="url(#graph-1751_flowchart-v2-pointStart)" style="" class="edge-thickness-normal edge-pattern-solid edge-thickness-normal edge-pattern-solid flowchart-link" id="L_ctrlImpl_BeamNGPhysics_0" d="M192.613,1717.781L192.613,1721.281C192.613,1724.781,192.613,1731.781,192.613,1739.448C192.613,1747.115,192.613,1755.448,192.613,1765.781C192.613,1776.115,192.613,1788.448,192.613,1800.115C192.613,1811.781,192.613,1822.781,192.613,1828.281L192.613,1833.781"></path><path marker-end="url(#graph-1751_flowchart-v2-pointEnd)" marker-start="url(#graph-1751_flowchart-v2-pointStart)" style="" class="edge-thickness-normal edge-pattern-solid edge-thickness-normal edge-pattern-solid flowchart-link" id="L_GtStateModule_GtStateSensor_0" d="M371.105,1410.944L373.922,1414.584C376.739,1418.223,382.374,1425.502,385.191,1435.308C388.008,1445.115,388.008,1457.448,560.028,1473.588C732.048,1489.727,1076.088,1509.673,1248.108,1519.646L1420.128,1529.619"></path><path marker-end="url(#graph-1751_flowchart-v2-pointEnd)" marker-start="url(#graph-1751_flowchart-v2-pointStart)" style="" class="edge-thickness-normal edge-pattern-solid edge-thickness-normal edge-pattern-solid flowchart-link" id="L_GtStateModule_ctrlManager_0" d="M314.48,1410.443L310.303,1414.166C306.126,1417.889,297.772,1425.335,293.595,1435.225C289.418,1445.115,289.418,1457.448,280.647,1469.414C271.875,1481.379,254.332,1492.977,245.561,1498.776L236.789,1504.575"></path><path marker-end="url(#graph-1751_flowchart-v2-pointEnd)" style="" class="edge-thickness-normal edge-pattern-solid edge-thickness-normal edge-pattern-solid flowchart-link" id="L_GtStateSensor_ROSMsgs_0" d="M1491.918,1560.781L1491.918,1564.948C1491.918,1569.115,1491.918,1577.448,1491.918,1587.781C1491.918,1598.115,1491.918,1610.448,1491.918,1622.115C1491.918,1633.781,1491.918,1644.781,1491.918,1650.281L1491.918,1655.781"></path></g><g class="edgeLabels"><g transform="translate(1422.51171875, 93.78125)" class="edgeLabel"><g transform="translate(-26.25, -12)" class="label"><foreignObject height="24" width="52.5"><div style="display: table-cell; white-space: nowrap; line-height: 1.5; max-width: 200px; text-align: center;" class="labelBkg" xmlns="http://www.w3.org/1999/xhtml"><span class="edgeLabel"><p>Launch</p></span></div></foreignObject></g></g><g transform="translate(1309.08203125, 246.78125)" class="edgeLabel"><g transform="translate(-59.5859375, -12)" class="label"><foreignObject height="24" width="119.171875"><div style="display: table-cell; white-space: nowrap; line-height: 1.5; max-width: 200px; text-align: center;" class="labelBkg" xmlns="http://www.w3.org/1999/xhtml"><span class="edgeLabel"><p>config &amp; initialize</p></span></div></foreignObject></g></g><g transform="translate(1704.984375, 655.78125)" class="edgeLabel"><g transform="translate(-59.5859375, -12)" class="label"><foreignObject height="24" width="119.171875"><div style="display: table-cell; white-space: nowrap; line-height: 1.5; max-width: 200px; text-align: center;" class="labelBkg" xmlns="http://www.w3.org/1999/xhtml"><span class="edgeLabel"><p>config &amp; initialize</p></span></div></foreignObject></g></g><g transform="translate(1126.24609375, 591.78125)" class="edgeLabel"><g transform="translate(-91.15625, -12)" class="label"><foreignObject height="24" width="182.3125"><div style="display: table-cell; white-space: nowrap; line-height: 1.5; max-width: 200px; text-align: center;" class="labelBkg" xmlns="http://www.w3.org/1999/xhtml"><span class="edgeLabel"><p>control vehicle &amp; scenario</p></span></div></foreignObject></g></g><g transform="translate(1419.171875, 399.78125)" class="edgeLabel"><g transform="translate(-19.5703125, -12)" class="label"><foreignObject height="24" width="39.140625"><div style="display: table-cell; white-space: nowrap; line-height: 1.5; max-width: 200px; text-align: center;" class="labelBkg" xmlns="http://www.w3.org/1999/xhtml"><span class="edgeLabel"><p>setup</p></span></div></foreignObject></g></g><g transform="translate(1346.42578125, 527.78125)" class="edgeLabel"><g transform="translate(-26.6796875, -12)" class="label"><foreignObject height="24" width="53.359375"><div style="display: table-cell; white-space: nowrap; line-height: 1.5; max-width: 200px; text-align: center;" class="labelBkg" xmlns="http://www.w3.org/1999/xhtml"><span class="edgeLabel"><p>register</p></span></div></foreignObject></g></g><g transform="translate(1491.91796875, 872.78125)" class="edgeLabel"><g transform="translate(-26.6796875, -12)" class="label"><foreignObject height="24" width="53.359375"><div style="display: table-cell; white-space: nowrap; line-height: 1.5; max-width: 200px; text-align: center;" class="labelBkg" xmlns="http://www.w3.org/1999/xhtml"><span class="edgeLabel"><p>register</p></span></div></foreignObject></g></g><g transform="translate(1346.42578125, 655.78125)" class="edgeLabel"><g transform="translate(-22.234375, -12)" class="label"><foreignObject height="24" width="44.46875"><div style="display: table-cell; white-space: nowrap; line-height: 1.5; max-width: 200px; text-align: center;" class="labelBkg" xmlns="http://www.w3.org/1999/xhtml"><span class="edgeLabel"><p>create</p></span></div></foreignObject></g></g><g transform="translate(1491.91796875, 1469.78125)" class="edgeLabel"><g transform="translate(-22.234375, -12)" class="label"><foreignObject height="24" width="44.46875"><div style="display: table-cell; white-space: nowrap; line-height: 1.5; max-width: 200px; text-align: center;" class="labelBkg" xmlns="http://www.w3.org/1999/xhtml"><span class="edgeLabel"><p>create</p></span></div></foreignObject></g></g><g transform="translate(1346.42578125, 783.78125)" class="edgeLabel"><g transform="translate(-52.921875, -12)" class="label"><foreignObject height="24" width="105.84375"><div style="display: table-cell; white-space: nowrap; line-height: 1.5; max-width: 200px; text-align: center;" class="labelBkg" xmlns="http://www.w3.org/1999/xhtml"><span class="edgeLabel"><p>open controller</p></span></div></foreignObject></g></g><g transform="translate(250.953125, 936.78125)" class="edgeLabel"><g transform="translate(-58.6953125, -12)" class="label"><foreignObject height="24" width="117.390625"><div style="display: table-cell; white-space: nowrap; line-height: 1.5; max-width: 200px; text-align: center;" class="labelBkg" xmlns="http://www.w3.org/1999/xhtml"><span class="edgeLabel"><p>send commands</p></span></div></foreignObject></g></g><g transform="translate(154.1484375, 1178.78125)" class="edgeLabel"><g transform="translate(-19.5703125, -12)" class="label"><foreignObject height="24" width="39.140625"><div style="display: table-cell; white-space: nowrap; line-height: 1.5; max-width: 200px; text-align: center;" class="labelBkg" xmlns="http://www.w3.org/1999/xhtml"><span class="edgeLabel"><p>setup</p></span></div></foreignObject></g></g><g transform="translate(347.7578125, 1089.78125)" class="edgeLabel"><g transform="translate(-59.1484375, -12)" class="label"><foreignObject height="24" width="118.296875"><div style="display: table-cell; white-space: nowrap; line-height: 1.5; max-width: 200px; text-align: center;" class="labelBkg" xmlns="http://www.w3.org/1999/xhtml"><span class="edgeLabel"><p>manage sensors</p></span></div></foreignObject></g></g><g transform="translate(154.1484375, 1469.78125)" class="edgeLabel"><g transform="translate(-26.6796875, -12)" class="label"><foreignObject height="24" width="53.359375"><div style="display: table-cell; white-space: nowrap; line-height: 1.5; max-width: 200px; text-align: center;" class="labelBkg" xmlns="http://www.w3.org/1999/xhtml"><span class="edgeLabel"><p>register</p></span></div></foreignObject></g></g><g transform="translate(192.61328125, 1622.78125)" class="edgeLabel"><g transform="translate(-12.0078125, -12)" class="label"><foreignObject height="24" width="24.015625"><div style="display: table-cell; white-space: nowrap; line-height: 1.5; max-width: 200px; text-align: center;" class="labelBkg" xmlns="http://www.w3.org/1999/xhtml"><span class="edgeLabel"><p>call</p></span></div></foreignObject></g></g><g transform="translate(667.2890625, 1279.78125)" class="edgeLabel"><g transform="translate(-100, -24)" class="label"><foreignObject height="48" width="200"><div style="display: table; white-space: break-spaces; line-height: 1.5; max-width: 200px; text-align: center; width: 200px;" class="labelBkg" xmlns="http://www.w3.org/1999/xhtml"><span class="edgeLabel"><p>UDP socket: send target &amp; receive data</p></span></div></foreignObject></g></g><g transform="translate(840.65625, 1279.78125)" class="edgeLabel"><g transform="translate(-53.3671875, -12)" class="label"><foreignObject height="24" width="106.734375"><div style="display: table-cell; white-space: nowrap; line-height: 1.5; max-width: 200px; text-align: center;" class="labelBkg" xmlns="http://www.w3.org/1999/xhtml"><span class="edgeLabel"><p>compute target</p></span></div></foreignObject></g></g><g transform="translate(347.7578125, 1279.78125)" class="edgeLabel"><g transform="translate(-41.8046875, -12)" class="label"><foreignObject height="24" width="83.609375"><div style="display: table-cell; white-space: nowrap; line-height: 1.5; max-width: 200px; text-align: center;" class="labelBkg" xmlns="http://www.w3.org/1999/xhtml"><span class="edgeLabel"><p>sensor data</p></span></div></foreignObject></g></g><g transform="translate(192.61328125, 1800.78125)" class="edgeLabel"><g transform="translate(-24.46875, -12)" class="label"><foreignObject height="24" width="48.9375"><div style="display: table-cell; white-space: nowrap; line-height: 1.5; max-width: 200px; text-align: center;" class="labelBkg" xmlns="http://www.w3.org/1999/xhtml"><span class="edgeLabel"><p>update</p></span></div></foreignObject></g></g><g transform="translate(388.0078125, 1469.78125)" class="edgeLabel"><g transform="translate(-30.25, -12)" class="label"><foreignObject height="24" width="60.5"><div style="display: table-cell; white-space: nowrap; line-height: 1.5; max-width: 200px; text-align: center;" class="labelBkg" xmlns="http://www.w3.org/1999/xhtml"><span class="edgeLabel"><p>poll data</p></span></div></foreignObject></g></g><g transform="translate(289.41796875, 1469.78125)" class="edgeLabel"><g transform="translate(-30.25, -12)" class="label"><foreignObject height="24" width="60.5"><div style="display: table-cell; white-space: nowrap; line-height: 1.5; max-width: 200px; text-align: center;" class="labelBkg" xmlns="http://www.w3.org/1999/xhtml"><span class="edgeLabel"><p>poll data</p></span></div></foreignObject></g></g><g transform="translate(1491.91796875, 1622.78125)" class="edgeLabel"><g transform="translate(-26.234375, -12)" class="label"><foreignObject height="24" width="52.46875"><div style="display: table-cell; white-space: nowrap; line-height: 1.5; max-width: 200px; text-align: center;" class="labelBkg" xmlns="http://www.w3.org/1999/xhtml"><span class="edgeLabel"><p>convert</p></span></div></foreignObject></g></g></g><g class="nodes"><g transform="translate(1422.51171875, 32.390625)" id="flowchart-User-0" class="node default userInput"><circle cy="0" cx="0" r="24.390625" style="fill:#e1f5fe !important" class="basic label-container"></circle><g transform="translate(-16.890625, -12)" style="" class="label"><rect></rect><foreignObject height="24" width="33.78125"><div style="display: table-cell; white-space: nowrap; line-height: 1.5; max-width: 200px; text-align: center;" xmlns="http://www.w3.org/1999/xhtml"><span class="nodeLabel"><p>User</p></span></div></foreignObject></g></g><g transform="translate(1422.51171875, 182.78125)" id="flowchart-ControllerInterface-1" class="node default pythonNodes"><rect height="54" width="217.421875" y="-27" x="-108.7109375" style="fill:#e8f5e9 !important" class="basic label-container"></rect><g transform="translate(-78.7109375, -12)" style="" class="label"><rect></rect><foreignObject height="24" width="157.421875"><div style="display: table-cell; white-space: nowrap; line-height: 1.5; max-width: 200px; text-align: center;" xmlns="http://www.w3.org/1999/xhtml"><span class="nodeLabel"><p>controller_interface.py</p></span></div></foreignObject></g></g><g transform="translate(1309.08203125, 335.78125)" id="flowchart-SimManager-2" class="node default pythonNodes"><rect height="54" width="224.546875" y="-27" x="-112.2734375" style="fill:#e8f5e9 !important" class="basic label-container"></rect><g transform="translate(-82.2734375, -12)" style="" class="label"><rect></rect><foreignObject height="24" width="164.546875"><div style="display: table-cell; white-space: nowrap; line-height: 1.5; max-width: 200px; text-align: center;" xmlns="http://www.w3.org/1999/xhtml"><span class="nodeLabel"><p>simulation_manager.py</p></span></div></foreignObject></g></g><g transform="translate(1419.171875, 463.78125)" id="flowchart-VehicleManager-3" class="node default pythonNodes"><rect height="54" width="143.609375" y="-27" x="-71.8046875" style="fill:#e8f5e9 !important" class="basic label-container"></rect><g transform="translate(-41.8046875, -12)" style="" class="label"><rect></rect><foreignObject height="24" width="83.609375"><div style="display: table-cell; white-space: nowrap; line-height: 1.5; max-width: 200px; text-align: center;" xmlns="http://www.w3.org/1999/xhtml"><span class="nodeLabel"><p>manager.py</p></span></div></foreignObject></g></g><g transform="translate(1491.91796875, 1380.78125)" id="flowchart-SensorRegistry-4" class="node default pythonNodes"><rect height="54" width="169.375" y="-27" x="-84.6875" style="fill:#e8f5e9 !important" class="basic label-container"></rect><g transform="translate(-54.6875, -12)" style="" class="label"><rect></rect><foreignObject height="24" width="109.375"><div style="display: table-cell; white-space: nowrap; line-height: 1.5; max-width: 200px; text-align: center;" xmlns="http://www.w3.org/1999/xhtml"><span class="nodeLabel"><p>SensorRegistry</p></span></div></foreignObject></g></g><g transform="translate(1491.91796875, 1533.78125)" id="flowchart-GtStateSensor-5" class="node default pythonNodes"><rect height="54" width="135.59375" y="-27" x="-67.796875" style="fill:#e8f5e9 !important" class="basic label-container"></rect><g transform="translate(-37.796875, -12)" style="" class="label"><rect></rect><foreignObject height="24" width="75.59375"><div style="display: table-cell; white-space: nowrap; line-height: 1.5; max-width: 200px; text-align: center;" xmlns="http://www.w3.org/1999/xhtml"><span class="nodeLabel"><p>GtState.py</p></span></div></foreignObject></g></g><g transform="translate(1346.42578125, 719.78125)" id="flowchart-LowLevelController-6" class="node default pythonNodes"><rect height="54" width="220.984375" y="-27" x="-110.4921875" style="fill:#e8f5e9 !important" class="basic label-container"></rect><g transform="translate(-80.4921875, -12)" style="" class="label"><rect></rect><foreignObject height="24" width="160.984375"><div style="display: table-cell; white-space: nowrap; line-height: 1.5; max-width: 200px; text-align: center;" xmlns="http://www.w3.org/1999/xhtml"><span class="nodeLabel"><p>low_level_controller.py</p></span></div></foreignObject></g></g><g transform="translate(1346.42578125, 591.78125)" id="flowchart-ControllerRegistry-7" class="node default pythonNodes"><rect height="54" width="188.046875" y="-27" x="-94.0234375" style="fill:#e8f5e9 !important" class="basic label-container"></rect><g transform="translate(-64.0234375, -12)" style="" class="label"><rect></rect><foreignObject height="24" width="128.046875"><div style="display: table-cell; white-space: nowrap; line-height: 1.5; max-width: 200px; text-align: center;" xmlns="http://www.w3.org/1999/xhtml"><span class="nodeLabel"><p>ControllerRegistry</p></span></div></foreignObject></g></g><g transform="translate(753.97265625, 1178.78125)" id="flowchart-HighLevelController-8" class="node default pythonNodes"><rect height="54" width="227.21875" y="-27" x="-113.609375" style="fill:#e8f5e9 !important" class="basic label-container"></rect><g transform="translate(-83.609375, -12)" style="" class="label"><rect></rect><foreignObject height="24" width="167.21875"><div style="display: table-cell; white-space: nowrap; line-height: 1.5; max-width: 200px; text-align: center;" xmlns="http://www.w3.org/1999/xhtml"><span class="nodeLabel"><p>high_level_controller.py</p></span></div></foreignObject></g></g><g transform="translate(840.65625, 1380.78125)" id="flowchart-HighLevelCompute-9" class="node default cNodes"><rect height="54" width="178.28125" y="-27" x="-89.140625" style="fill:#fcc9c9 !important" class="basic label-container"></rect><g transform="translate(-59.140625, -12)" style="" class="label"><rect></rect><foreignObject height="24" width="118.28125"><div style="display: table-cell; white-space: nowrap; line-height: 1.5; max-width: 200px; text-align: center;" xmlns="http://www.w3.org/1999/xhtml"><span class="nodeLabel"><p>controller_core.c</p></span></div></foreignObject></g></g><g transform="translate(1491.91796875, 1686.78125)" id="flowchart-ROSMsgs-10" class="node default rosNodes"><rect height="54" width="172.046875" y="-27" x="-86.0234375" style="fill:#fff3e0 !important" class="basic label-container"></rect><g transform="translate(-56.0234375, -12)" style="" class="label"><rect></rect><foreignObject height="24" width="112.046875"><div style="display: table-cell; white-space: nowrap; line-height: 1.5; max-width: 200px; text-align: center;" xmlns="http://www.w3.org/1999/xhtml"><span class="nodeLabel"><p>ROS Messages</p></span></div></foreignObject></g></g><g transform="translate(250.953125, 872.78125)" id="flowchart-BeamNGPy-11" class="node default pythonNodes"><rect height="54" width="209.40625" y="-27" x="-104.703125" style="fill:#e8f5e9 !important" class="basic label-container"></rect><g transform="translate(-74.703125, -12)" style="" class="label"><rect></rect><foreignObject height="24" width="149.40625"><div style="display: table-cell; white-space: nowrap; line-height: 1.5; max-width: 200px; text-align: center;" xmlns="http://www.w3.org/1999/xhtml"><span class="nodeLabel"><p>BeamNGpy Interface</p></span></div></foreignObject></g></g><g transform="translate(250.953125, 1025.78125)" id="flowchart-XlabCore-12" class="node default luaNodes"><rect height="54" width="149.828125" y="-27" x="-74.9140625" style="fill:#f3e5f5 !important" class="basic label-container"></rect><g transform="translate(-44.9140625, -12)" style="" class="label"><rect></rect><foreignObject height="24" width="89.828125"><div style="display: table-cell; white-space: nowrap; line-height: 1.5; max-width: 200px; text-align: center;" xmlns="http://www.w3.org/1999/xhtml"><span class="nodeLabel"><p>xlabCore.lua</p></span></div></foreignObject></g></g><g transform="translate(347.7578125, 1178.78125)" id="flowchart-SensorsLua-13" class="node default luaNodes"><rect height="54" width="141.828125" y="-27" x="-70.9140625" style="fill:#f3e5f5 !important" class="basic label-container"></rect><g transform="translate(-40.9140625, -12)" style="" class="label"><rect></rect><foreignObject height="24" width="81.828125"><div style="display: table-cell; white-space: nowrap; line-height: 1.5; max-width: 200px; text-align: center;" xmlns="http://www.w3.org/1999/xhtml"><span class="nodeLabel"><p>sensors.lua</p></span></div></foreignObject></g></g><g transform="translate(347.7578125, 1380.78125)" id="flowchart-GtStateModule-14" class="node default luaNodes"><rect height="54" width="136.5" y="-27" x="-68.25" style="fill:#f3e5f5 !important" class="basic label-container"></rect><g transform="translate(-38.25, -12)" style="" class="label"><rect></rect><foreignObject height="24" width="76.5"><div style="display: table-cell; white-space: nowrap; line-height: 1.5; max-width: 200px; text-align: center;" xmlns="http://www.w3.org/1999/xhtml"><span class="nodeLabel"><p>gtState.lua</p></span></div></foreignObject></g></g><g transform="translate(154.1484375, 1380.78125)" id="flowchart-extController-15" class="node default luaNodes"><rect height="54" width="150.71875" y="-27" x="-75.359375" style="fill:#f3e5f5 !important" class="basic label-container"></rect><g transform="translate(-45.359375, -12)" style="" class="label"><rect></rect><foreignObject height="24" width="90.71875"><div style="display: table-cell; white-space: nowrap; line-height: 1.5; max-width: 200px; text-align: center;" xmlns="http://www.w3.org/1999/xhtml"><span class="nodeLabel"><p>controller.lua</p></span></div></foreignObject></g></g><g transform="translate(192.61328125, 1533.78125)" id="flowchart-ctrlManager-16" class="node default luaNodes"><rect height="54" width="213.875" y="-27" x="-106.9375" style="fill:#f3e5f5 !important" class="basic label-container"></rect><g transform="translate(-76.9375, -12)" style="" class="label"><rect></rect><foreignObject height="24" width="153.875"><div style="display: table-cell; white-space: nowrap; line-height: 1.5; max-width: 200px; text-align: center;" xmlns="http://www.w3.org/1999/xhtml"><span class="nodeLabel"><p>controllerManager.lua</p></span></div></foreignObject></g></g><g transform="translate(192.61328125, 1686.78125)" id="flowchart-ctrlImpl-17" class="node default luaNodes"><rect height="54" width="202.296875" y="-27" x="-101.1484375" style="fill:#f3e5f5 !important" class="basic label-container"></rect><g transform="translate(-71.1484375, -12)" style="" class="label"><rect></rect><foreignObject height="24" width="142.296875"><div style="display: table-cell; white-space: nowrap; line-height: 1.5; max-width: 200px; text-align: center;" xmlns="http://www.w3.org/1999/xhtml"><span class="nodeLabel"><p>controllerDefault.lua</p></span></div></foreignObject></g></g><g transform="translate(192.61328125, 1864.78125)" id="flowchart-BeamNGPhysics-18" class="node default beamngNodes"><rect height="54" width="239.640625" y="-27" x="-119.8203125" style="fill:#ffebee !important" class="basic label-container"></rect><g transform="translate(-89.8203125, -12)" style="" class="label"><rect></rect><foreignObject height="24" width="179.640625"><div style="display: table-cell; white-space: nowrap; line-height: 1.5; max-width: 200px; text-align: center;" xmlns="http://www.w3.org/1999/xhtml"><span class="nodeLabel"><p>BeamNG Physics Engine</p></span></div></foreignObject></g></g></g></g></g></g></svg>